# xmcd
# 
# Track frame offsets:
#     150
#     26262
#     43734
#     71278
#     92374
#     112875
#     136460
#     155933
#     178140
#     193228
#     215443
#     234184
#     260245
#     280614
#     301284
#     339403
# 
# Disc length: 4767
# 
# Revision: 2
# Processed by: cddbd v1.5.2PL0 Copyright (c) Steve Scherf et al.
# Submitted via: fre:ac v1.0.17
# 
DISCID=e0129d10
DTITLE=BAD COMPANY - HARD ROCK LIVE 
DYEAR=2009
DGENRE=Rock
TTITLE0=Bad Company
TTITLE1=Honey Child
TTITLE2=Burnin' Sky
TTITLE3=Gone, Gone, Gone
TTITLE4=Run With The Pack
TTITLE5=Live For The Music
TTITLE6=Seagull
TTITLE7=Feel Like Makin' Love
TTITLE8=Movin' On
TTITLE9=Simple Man
TTITLE10=Rock Steady
TTITLE11=Shooting Star
TTITLE12=Can't Get Enough
TTITLE13=Rock 'N' Roll Fantasy
TTITLE14=Ready For Love
TTITLE15=Good Lovin' Gone Bad
EXTD=
EXTT0=
EXTT1=
EXTT2=
EXTT3=
EXTT4=
EXTT5=
EXTT6=
EXTT7=
EXTT8=
EXTT9=
EXTT10=
EXTT11=
EXTT12=
EXTT13=
EXTT14=
EXTT15=
PLAYORDER=
